<svg id="Layer_1" enable-background="new 0 0 511.99 511.99" height="512" viewBox="0 0 511.99 511.99" width="512" xmlns="http://www.w3.org/2000/svg"><g><path d="m272.412 115.995h40.088v280h-40.088z" fill="#325a93"/><path d="m272.413 136.055v239.88h-83.54l-83.34-50.14v-129.57l83.34-60.17z" fill="#5fe1ff"/><path d="m7.503 196.225h98.03v129.57h-98.03z" fill="#5fe1ff"/><path d="m232.413 136.055h40v239.88h-40z" fill="#3eb6ff"/><path d="m7.503 196.225h49.01v129.57h-49.01z" fill="#325a93"/><path d="m32.008 196.225h24.505v129.57h-24.505z" fill="#132d77"/></g><g><path d="m312.5 108.495h-40.088c-4.143 0-7.5 3.358-7.5 7.5v12.557h-76.043c-1.576 0-3.112.497-4.39 1.419l-81.375 58.751h-95.604c-4.142 0-7.5 3.358-7.5 7.5v129.573c0 4.142 3.358 7.5 7.5 7.5h95.917l22.459 13.729c3.534 2.158 8.15 1.046 10.311-2.488 2.16-3.534 1.046-8.15-2.488-10.311l-20.672-12.636v-121.53l78.265-56.506h73.619v224.886h-73.985l-27.684-16.439c-3.562-2.114-8.164-.942-10.278 2.62s-.941 8.164 2.62 10.278l29.456 17.488c1.159.688 2.481 1.051 3.829 1.051h76.043v12.557c0 4.142 3.357 7.5 7.5 7.5h40.088c4.143 0 7.5-3.358 7.5-7.5v-210.341c0-4.142-3.357-7.5-7.5-7.5s-7.5 3.358-7.5 7.5v202.842h-25.088v-265h25.088v27.818c0 4.142 3.357 7.5 7.5 7.5s7.5-3.358 7.5-7.5v-35.318c0-4.142-3.357-7.5-7.5-7.5zm-214.472 209.801h-34.014v-114.573h34.014zm-83.028-114.573h34.014v114.573h-34.014z"/><g fill="#1e0f00"><path d="m429.646 196.827c-3.049-2.804-7.795-2.603-10.597.447-2.804 3.05-2.604 7.794.446 10.597 14.834 13.634 23.342 33.002 23.342 53.138s-8.508 39.504-23.342 53.138c-3.05 2.803-3.25 7.547-.446 10.597 1.479 1.609 3.497 2.425 5.523 2.425 1.813 0 3.633-.654 5.073-1.978 17.916-16.467 28.191-39.86 28.191-64.182s-10.273-47.715-28.19-64.182z"/><path d="m390.212 235.268c-3.3-2.506-8.005-1.862-10.509 1.437-2.505 3.299-1.862 8.004 1.437 10.509 4.355 3.308 6.854 8.336 6.854 13.796s-2.498 10.488-6.854 13.796c-3.299 2.505-3.941 7.21-1.437 10.509 1.476 1.942 3.714 2.964 5.979 2.964 1.58 0 3.174-.498 4.53-1.528 8.123-6.168 12.781-15.551 12.781-25.741s-4.658-19.573-12.781-25.742z"/><path d="m468.052 158.604c-3.003-2.854-7.748-2.736-10.604.266-2.854 3.001-2.735 7.749.266 10.603 25.328 24.088 39.276 56.597 39.276 91.537s-13.948 67.448-39.276 91.537c-3.001 2.854-3.12 7.602-.266 10.603 1.475 1.55 3.453 2.332 5.436 2.332 1.856 0 3.717-.685 5.168-2.065 28.334-26.948 43.938-63.316 43.938-102.406s-15.604-75.459-43.938-102.407z"/></g></g></svg>